/* XPM */
static const char * canvas_player_number_xpm[] = {
"16 16 3 1",
" 	c None",
".	c #000000",
"+	c #FFFF00",
"          ..  ..",
"          ... ..",
"          ......",
"          ......",
"     ..   .. ...",
"   ..++.. ..  ..",
"  .++++++.      ",
" .++++++++.     ",
" .++++++++.     ",
".++++++++++.    ",
".+........+.    ",
" .+......+.     ",
" .+......+.     ",
"  .++..++.      ",
"   ..++..       ",
"     ..         "};
