/* XPM */
static const char * data_auto_select_xpm[] = {
"16 16 3 1",
" 	c None",
".	c #FFFF00",
"+	c #FF0000",
"                ",
" .............. ",
" .............. ",
" ..    ++    .. ",
" ..    ++    .. ",
" ..    ++    .. ",
" ..    ++    .. ",
" ..++++++++++.. ",
" ..++++++++++.. ",
" ..    ++    .. ",
" ..    ++    .. ",
" ..    ++    .. ",
" ..    ++    .. ",
" .............. ",
" .............. ",
"                "};
