/* XPM */
static const char * debug_view_player_xpm[] = {
"16 16 3 1",
" 	c None",
".	c #000000",
"+	c #00FFC0",
"                ",
"                ",
" ......         ",
" .......        ",
" ..   ..        ",
" ..   ..  ++++  ",
" ..   .. ++++++ ",
" .......++++++++",
" ...... ++++++++",
" ..     ++    ++",
" ..     ++    ++",
" ..      ++  ++ ",
" ..       ++++  ",
" ..             ",
"                ",
"                "};
