/* XPM */
static const char * debug_log_view_xpm[] = {
"16 16 3 1",
" 	c None",
".	c #FF0000",
"+	c #0000FF",
"                ",
" .............  ",
" .............  ",
" ..         ..  ",
" ..     +++++.  ",
" ..    +++++++  ",
" ..   +++   +++ ",
" ..  +++    .+++",
" ..  ++     ..++",
" ....++.......++",
" ....++.......++",
"     +++     +++",
"      +++   +++ ",
"       +++++++  ",
"        +++++   ",
"                "};
