/* XPM */
static const char * debug_server_switch_xpm[] = {
"16 16 4 1",
" 	c None",
".	c #FF8000",
"+	c #000000",
"@	c #FFFF00",
"                ",
"                ",
"         ..     ",
"       ......   ",
"     +........  ",
"   ++.......... ",
"  +@@.......... ",
" +@@............",
" +@@..@@@@+   ..",
"+@@@@..@@@@+ .. ",
"+@+++..+++@+ .. ",
" +@+++...@+...  ",
" +@++++......   ",
"  +@@++@@..     ",
"   ++@@++       ",
"     ++         "};
