/* XPM */
static const char * debug_view_opponent_xpm[] = {
"16 16 3 1",
" 	c None",
".	c #000000",
"+	c #005FFF",
"                ",
"                ",
"  ....          ",
" ......         ",
" ..  ..         ",
" ..  ..   ++++  ",
" ..  ..  ++++++ ",
" ..  .. ++++++++",
" ..  .. ++++++++",
" ..  .. ++    ++",
" ..  .. ++    ++",
" ..  ..  ++  ++ ",
" ......   ++++  ",
"  ....          ",
"                ",
"                "};
