/* XPM */
static const char * debug_view_all_xpm[] = {
"16 16 2 1",
" 	c None",
".	c #000000",
"                ",
"                ",
"  ..   ..   ..  ",
"  ..   ..   ..  ",
" ....  ..   ..  ",
" .  .  ..   ..  ",
" .  .  ..   ..  ",
"..  .. ..   ..  ",
"..  .. ..   ..  ",
"...... ..   ..  ",
"...... ..   ..  ",
"..  .. ..   ..  ",
"..  .. .... ....",
"..  .. .... ....",
"                ",
"                "};
