/* XPM */
static const char * float_xpm[] = {
"12 12 74 1",
" 	c None",
".	c #747474",
"+	c #8B8B8B",
"@	c #878787",
"#	c #858585",
"$	c #838383",
"%	c #848484",
"&	c #7E7E7E",
"*	c #676767",
"=	c #868686",
"-	c #FBFBFB",
";	c #F4F4F4",
">	c #CACACA",
",	c #686868",
"'	c #808080",
")	c #F3F3F3",
"!	c #DCDCDC",
"~	c #A2A2A2",
"{	c #4F4F4F",
"]	c #7C7C7C",
"^	c #F1F1F1",
"/	c #D7D7D7",
"(	c #A6A6A6",
"_	c #707070",
":	c #A0A0A0",
"<	c #484848",
"[	c #7B7B7B",
"}	c #EFEFEF",
"|	c #D3D3D3",
"1	c #6E6E6E",
"2	c #000000",
"3	c #666666",
"4	c #9F9F9F",
"5	c #454545",
"6	c #7A7A7A",
"7	c #EEEEEE",
"8	c #CDCDCD",
"9	c #6B6B6B",
"0	c #636363",
"a	c #9D9D9D",
"b	c #797979",
"c	c #ECECEC",
"d	c #C8C8C8",
"e	c #BEBEBE",
"f	c #818181",
"g	c #606060",
"h	c #9B9B9B",
"i	c #444444",
"j	c #777777",
"k	c #EAEAEA",
"l	c #C3C3C3",
"m	c #545454",
"n	c #595959",
"o	c #5E5E5E",
"p	c #999999",
"q	c #434343",
"r	c #757575",
"s	c #E8E8E8",
"t	c #8F8F8F",
"u	c #5C5C5C",
"v	c #979797",
"w	c #424242",
"x	c #737373",
"y	c #E7E7E7",
"z	c #BABABA",
"A	c #959595",
"B	c #414141",
"C	c #6A6A6A",
"D	c #C5C5C5",
"E	c #949494",
"F	c #4C4C4C",
"G	c #404040",
"H	c #3E3E3E",
"I	c #353535",
".+@#$$$$$%&*",
"=-;;;;;;;;>,",
"')!!!!!!!!~{",
"]^/(____~/:<",
"[}|122223|45",
"6789222208a5",
"bcd,beefgdhi",
"jkl3m%%nolpq",
"rsetuuuu+evw",
"xyzzzzzzzzAB",
"CDEEEEEEEE@w",
"FniGHHHHHHGI"};
