/* XPM */
static const char * logplayer_slider_xpm[] = {
"16 16 4 1",
" 	c None",
".	c #FFFFFF",
"+	c #000000",
"@	c #808080",
"                ",
"                ",
"                ",
"                ",
"     ....+      ",
"     .@@@+      ",
"     .@@@+      ",
"......@@@+..... ",
"+++++.@@@++++++ ",
"     .@@@+      ",
"     .@@@+      ",
"     .@@@+      ",
"     +++++      ",
"                ",
"                ",
"                "};
