/* XPM */
static const char * logplayer_one_step_forward_xpm[] = {
"16 16 3 1",
" 	c None",
".	c #000000",
"+	c #808080",
"                ",
"                ",
"                ",
"    ..    +..   ",
"    ...   +..   ",
"    ....  +..   ",
"    ..... +..   ",
"    ......+..   ",
"    .....++..   ",
"    ....+ +..   ",
"    ...+  +..   ",
"    ..+   +++   ",
"    ++          ",
"                ",
"                ",
"                "};
