/* XPM */
static const char * monitor_connect_xpm[] = {
"16 16 3 1",
" 	c None",
".	c #000000",
"+	c #404EF4",
"              ..",
"             .. ",
"       ...  ..  ",
"      ..+....   ",
"     ..+++..    ",
"    ..+++++..   ",
"   ....+++++.   ",
"  ..++..++++.   ",
"  .++++..++..   ",
"  .+++++....    ",
"  ..+++++..     ",
"   ..+++..      ",
"  ....+..       ",
" ..  ...        ",
"..              ",
".               "};
