/* XPM */
static const char * monitor_kickoff_xpm[] = {
"16 16 31 1",
" 	c None",
".	c #F5F9FE",
"+	c #E0E1D9",
"@	c #E9EAE2",
"#	c #CCC9B5",
"$	c #EEF1F1",
"%	c #E5E5DE",
"&	c #D5D4C7",
"*	c #EEEFE6",
"=	c #F6F5E9",
"-	c #FEFEFE",
";	c #988E6F",
">	c #A8A698",
",	c #BEB79C",
"'	c #F1F4F6",
")	c #B3B3AE",
"!	c #726850",
"~	c #FAFBF4",
"{	c #959388",
"]	c #0D0D0C",
"^	c #9C8B67",
"/	c #92825F",
"(	c #877959",
"_	c #A99872",
":	c #585138",
"<	c #C9C9C3",
"[	c #DBDAD4",
"}	c #9C927B",
"|	c #827F6F",
"1	c #E1DECF",
"2	c #8C846D",
"      .         ",
"   +@#+$.       ",
" %+&#+*=-.      ",
";>,#%*'->)      ",
"!;,%~~-{]])'    ",
"^/(^&*!]]]>@    ",
"__^^^:]]]<-*+   ",
"/^^/_(]]*~@**+  ",
"((///__/>~*@@@[ ",
"}!(((/!(!|=*%@%+",
" !!!!(:) (!%*1*&",
"  |:::)   !:&=#;",
"           (:)#,",
"            (:2 ",
"                ",
"                "};
