/* XPM */
static const char * num_15_xpm[] = {
"16 16 2 1",
" 	c None",
".	c #FF0000",
"                ",
"                ",
"                ",
"   ..  .......  ",
"  ...  ..       ",
" ....  ..       ",
"   ..  ......   ",
"   ..  ..   ..  ",
"   ..       ..  ",
"   ..       ..  ",
"   ..       ..  ",
"   ..  ..   ..  ",
"   ..  ..   ..  ",
"   ..   .....   ",
"                ",
"                "};
