/* XPM */
static const char * open_dir_xpm[] = {
"16 15 4 1",
" 	c None",
".	c #000000",
"+	c #EFEF00",
"@	c #FFFF00",
"                ",
"                ",
"  ...           ",
" .+++.......... ",
" .++++++++++++. ",
" .++........... ",
" .+..+++++++++. ",
" ...++++++++++. ",
" .++++++++++++. ",
" .++++++++++++. ",
" .++++++++++++. ",
" .+++++++++++.. ",
" .++++++++++.@. ",
" .............. ",
"                "};
