/* XPM */
static const char * soccerwindow2_xpm[] = {
"32 32 10 1",
" 	c None",
".	c #868686",
"+	c #C0C0C0",
"@	c #FFFFFF",
"#	c #000080",
"$	c #FF0000",
"%	c #040404",
"&	c #800080",
"*	c #800000",
"=	c #008000",
"                                ",
"            ..++++.+            ",
"         ..+@@@@@@@+++          ",
"       ..+@@@@@@@@@@@++#        ",
"      ##.@@@@@@@@@@@@@+##       ",
"     ###+@@@@@@@@@@@@@@##+.     ",
"    ####.@@@@@@@@@@@@@@###+     ",
"   #####.+@@@@@@@@@@@@####@+    ",
"  .####..##+@@@@@@@#######@@    ",
"  .....+#########++########@.   ",
"  ..@@++#########..@@@@####.+   ",
" #.@@@@@@########@@@@@@@@..++   ",
" #@@$$$$@@#####+@@$$@@@@@@+++.  ",
" .@@$$@$$@#@@@@@@@$$@@@@@@@@@@  ",
" .@@$$@$$@@@$$$@@@$$$$@@@@$$$@@ ",
" @@@$$$$@@@$$@$$@@$$@$$@@$$@$$@ ",
" @@@$$@$$@@$$@$$@@$$@$$@@$$@$$@ ",
" @@@$$@$$@@$$@$$@@$$@$$@@$$@$$@ ",
" #@@$$@$$@@@$$$@@@$$$$@@@@$$$@@ ",
" #@@@@@@@@#@@@@@@@@@@@@@@@@@@@  ",
" %@@@@@@.##@@@@@@@@@@@@@@+##.   ",
"  %@@@@.##@@$$$@@@@@@@@@++##+   ",
"  #@@@####@$$@$$@@@@@@@@@@@@@@  ",
"   #######@$$@@@@@$$@$$@@$$$$@@ ",
"   #######@$$@##+@$$@$$@@$$@$$@ ",
"    %#####@$$@@@@@$$@$$@@$$@$$@ ",
"     ##&..@$$@$$@@$$@$$@@$$$$@@ ",
"       #.@@@$$$@@@@$$$@@@$$@@@  ",
"        *##@@@@@..@@@@@ @$$@    ",
"           ==......     @@@@    ",
"                                ",
"                                "};
