/* XPM */
static const char * soccerwindow2_nostr_xpm[] = {
"32 32 5 1",
" 	c None",
".	c #808080",
"+	c #C0C0C0",
"@	c #FFFFFF",
"#	c #000080",
"                                ",
"            ..++++..            ",
"         ..+@@@@@@++++          ",
"       ..+@@@@@@@@@@+++         ",
"      ##.@@@@@@@@@@@@@+##       ",
"     ###+@@@@@@@@@@@@@@###.     ",
"    ####.@@@@@@@@@@@@@@###+     ",
"   #####.+@@@@@@@@@@@@####@+    ",
"  .####..##+@@@@@@@#######@@    ",
"  .....+#########++########@.   ",
" ...@@++#########..@@@@####.+   ",
" #.@@@@@.########@@@@@@@@..++   ",
" #@@@@@@+######+@@@@@@@@@@+++.  ",
" .@@@@@@+#####+@@@@@@@@@@@+###  ",
" .@@@@@@.####+@@@@@@@@@@@+###.  ",
" @@@@@@@+####+@@@@@@@@@@@@@##.  ",
" @@@@@@@+++++@@@@@@@@@@@@@@##.. ",
" @@@@@@@+###+@@@@@@@@@@@@@@##.  ",
" #@@@@@@+###+@@@@@@@@@@@@@+##.  ",
" #@@@@@@.###+@@@@@@@@@@@@@+##   ",
"  @@@@@@.####+@@@@@@@@@@@+##.   ",
"  #@@@@.#####+@+@@@@@@@@++##+   ",
"  #@@@#######.+@@@@@@@@+++#+    ",
"   ###########.+@@@@@@++#++@    ",
"   .############++++++####@     ",
"    ###########+...######@      ",
"     ##......@@..######.@       ",
"      @#.@@@@@@@+#####          ",
"         ..@.@@...#.            ",
"                                ",
"                                ",
"                                "};
