/* XPM */
static const char * sync_xpm[] = {
"16 16 3 1",
" 	c None",
".	c #FFFFFF",
"+	c #38B138",
"                ",
"                ",
"                ",
" ...............",
" .++++++.++++++.",
" .++++++.++++++.",
" ...++++.++++...",
" .+.+++...+++.+.",
" .+.++.+.+.++.+.",
" .+.+++...+++.+.",
" ...++++.++++...",
" .++++++.++++++.",
" .++++++.++++++.",
" ...............",
"                ",
"                "};
