/* XPM */
static const char * sync_ball_xpm[] = {
"16 16 4 1",
" 	c None",
".	c #000000",
"+	c #000300",
"@	c #FFFFFF",
"                ",
"     ......   . ",
"   ..+...++.. . ",
"  .+.      ++.. ",
" .+.        ... ",
" ..    @@ ...++ ",
" ..   @@@@      ",
"     @@@@@@     ",
"     @@@@@@     ",
"      @@@@   .. ",
" ++... @@    .. ",
" ...        .+. ",
" ..++      .+.  ",
" . ..++...+..   ",
" .   ......     ",
"                "};
